<?xml version="1.0" encoding="UTF-8" standalone="no"?>
<!-- Created with Inkscape (http://www.inkscape.org/) -->

<svg
   xmlns:dc="http://purl.org/dc/elements/1.1/"
   xmlns:cc="http://creativecommons.org/ns#"
   xmlns:rdf="http://www.w3.org/1999/02/22-rdf-syntax-ns#"
   xmlns:svg="http://www.w3.org/2000/svg"
   xmlns="http://www.w3.org/2000/svg"
   xmlns:sodipodi="http://sodipodi.sourceforge.net/DTD/sodipodi-0.dtd"
   xmlns:inkscape="http://www.inkscape.org/namespaces/inkscape"
   width="52.908142mm"
   height="52.641613mm"
   viewBox="0 0 52.908142 52.641613"
   version="1.1"
   id="svg23238"
   inkscape:version="0.92.1 r15371"
   sodipodi:docname="drone.svg">
  <defs
     id="defs23232">
    <marker
       inkscape:stockid="Arrow2Mend"
       orient="auto"
       refY="0"
       refX="0"
       id="marker26949"
       style="overflow:visible"
       inkscape:isstock="true">
      <path
         id="path26947"
         style="fill:#b6b6b6;fill-opacity:1;fill-rule:evenodd;stroke:#b6b6b6;stroke-width:0.625;stroke-linejoin:round;stroke-opacity:1"
         d="M 8.7185878,4.0337352 -2.2072895,0.01601326 8.7185884,-4.0017078 c -1.7454984,2.3720609 -1.7354408,5.6174519 -6e-7,8.035443 z"
         transform="scale(-0.6)"
         inkscape:connector-curvature="0" />
    </marker>
    <marker
       inkscape:stockid="Arrow2Send"
       orient="auto"
       refY="0"
       refX="0"
       id="marker26813"
       style="overflow:visible"
       inkscape:isstock="true">
      <path
         id="path26811"
         style="fill:#ff0404;fill-opacity:1;fill-rule:evenodd;stroke:#ff0404;stroke-width:0.625;stroke-linejoin:round;stroke-opacity:1"
         d="M 8.7185878,4.0337352 -2.2072895,0.01601326 8.7185884,-4.0017078 c -1.7454984,2.3720609 -1.7354408,5.6174519 -6e-7,8.035443 z"
         transform="matrix(-0.3,0,0,-0.3,0.69,0)"
         inkscape:connector-curvature="0" />
    </marker>
    <marker
       inkscape:stockid="Arrow1Send"
       orient="auto"
       refY="0"
       refX="0"
       id="Arrow1Send"
       style="overflow:visible"
       inkscape:isstock="true">
      <path
         id="path23848"
         d="M 0,0 5,-5 -12.5,0 5,5 Z"
         style="fill:#ff0404;fill-opacity:1;fill-rule:evenodd;stroke:#ff0404;stroke-width:1.00000003pt;stroke-opacity:1"
         transform="matrix(-0.2,0,0,-0.2,-1.2,0)"
         inkscape:connector-curvature="0" />
    </marker>
    <marker
       inkscape:stockid="Arrow2Mend"
       orient="auto"
       refY="0"
       refX="0"
       id="marker26597"
       style="overflow:visible"
       inkscape:isstock="true">
      <path
         id="path26595"
         style="fill:#484848;fill-opacity:1;fill-rule:evenodd;stroke:#484848;stroke-width:0.625;stroke-linejoin:round;stroke-opacity:1"
         d="M 8.7185878,4.0337352 -2.2072895,0.01601326 8.7185884,-4.0017078 c -1.7454984,2.3720609 -1.7354408,5.6174519 -6e-7,8.035443 z"
         transform="scale(-0.6)"
         inkscape:connector-curvature="0" />
    </marker>
    <marker
       inkscape:stockid="Arrow1Mend"
       orient="auto"
       refY="0"
       refX="0"
       id="Arrow1Mend"
       style="overflow:visible"
       inkscape:isstock="true">
      <path
         id="path23842"
         d="M 0,0 5,-5 -12.5,0 5,5 Z"
         style="fill:#ff0404;fill-opacity:1;fill-rule:evenodd;stroke:#ff0404;stroke-width:1.00000003pt;stroke-opacity:1"
         transform="matrix(-0.4,0,0,-0.4,-4,0)"
         inkscape:connector-curvature="0" />
    </marker>
    <marker
       inkscape:isstock="true"
       style="overflow:visible"
       id="marker26060"
       refX="0"
       refY="0"
       orient="auto"
       inkscape:stockid="Arrow2Sstart">
      <path
         transform="matrix(0.3,0,0,0.3,-0.69,0)"
         d="M 8.7185878,4.0337352 -2.2072895,0.01601326 8.7185884,-4.0017078 c -1.7454984,2.3720609 -1.7354408,5.6174519 -6e-7,8.035443 z"
         style="fill:#5aabd7;fill-opacity:1;fill-rule:evenodd;stroke:#5aabd7;stroke-width:0.625;stroke-linejoin:round;stroke-opacity:1"
         id="path26058"
         inkscape:connector-curvature="0" />
    </marker>
    <marker
       inkscape:stockid="Arrow1Sstart"
       orient="auto"
       refY="0"
       refX="0"
       id="Arrow1Sstart"
       style="overflow:visible"
       inkscape:isstock="true">
      <path
         id="path23845"
         d="M 0,0 5,-5 -12.5,0 5,5 Z"
         style="fill:#969696;fill-opacity:1;fill-rule:evenodd;stroke:#969696;stroke-width:1.00000003pt;stroke-opacity:1"
         transform="matrix(0.2,0,0,0.2,1.2,0)"
         inkscape:connector-curvature="0" />
    </marker>
    <marker
       inkscape:stockid="Arrow2Send"
       orient="auto"
       refY="0"
       refX="0"
       id="Arrow2Send"
       style="overflow:visible"
       inkscape:isstock="true">
      <path
         id="path23866"
         style="fill:#4bae71;fill-opacity:1;fill-rule:evenodd;stroke:#4bae71;stroke-width:0.625;stroke-linejoin:round;stroke-opacity:1"
         d="M 8.7185878,4.0337352 -2.2072895,0.01601326 8.7185884,-4.0017078 c -1.7454984,2.3720609 -1.7354408,5.6174519 -6e-7,8.035443 z"
         transform="matrix(-0.3,0,0,-0.3,0.69,0)"
         inkscape:connector-curvature="0" />
    </marker>
    <marker
       inkscape:stockid="Arrow2Mend"
       orient="auto"
       refY="0"
       refX="0"
       id="Arrow2Mend"
       style="overflow:visible"
       inkscape:isstock="true">
      <path
         id="path23860"
         style="fill:#6391d7;fill-opacity:1;fill-rule:evenodd;stroke:#6391d7;stroke-width:0.625;stroke-linejoin:round;stroke-opacity:1"
         d="M 8.7185878,4.0337352 -2.2072895,0.01601326 8.7185884,-4.0017078 c -1.7454984,2.3720609 -1.7354408,5.6174519 -6e-7,8.035443 z"
         transform="scale(-0.6)"
         inkscape:connector-curvature="0" />
    </marker>
    <marker
       inkscape:stockid="Arrow2Send"
       orient="auto"
       refY="0"
       refX="0"
       id="Arrow2Send-5"
       style="overflow:visible"
       inkscape:isstock="true">
      <path
         inkscape:connector-curvature="0"
         id="path23866-0"
         style="fill:#969696;fill-opacity:1;fill-rule:evenodd;stroke:#969696;stroke-width:0.625;stroke-linejoin:round;stroke-opacity:1"
         d="M 8.7185878,4.0337352 -2.2072895,0.01601326 8.7185884,-4.0017078 c -1.7454984,2.3720609 -1.7354408,5.6174519 -6e-7,8.035443 z"
         transform="matrix(-0.3,0,0,-0.3,0.69,0)" />
    </marker>
    <marker
       inkscape:stockid="Arrow2Send"
       orient="auto"
       refY="0"
       refX="0"
       id="Arrow2Send-5-1"
       style="overflow:visible"
       inkscape:isstock="true">
      <path
         inkscape:connector-curvature="0"
         id="path23866-0-1"
         style="fill:#4bae71;fill-opacity:1;fill-rule:evenodd;stroke:#4bae71;stroke-width:0.625;stroke-linejoin:round;stroke-opacity:1"
         d="M 8.7185878,4.0337352 -2.2072895,0.01601326 8.7185884,-4.0017078 c -1.7454984,2.3720609 -1.7354408,5.6174519 -6e-7,8.035443 z"
         transform="matrix(-0.3,0,0,-0.3,0.69,0)" />
    </marker>
    <marker
       inkscape:stockid="Arrow2Send"
       orient="auto"
       refY="0"
       refX="0"
       id="Arrow2Send-5-4"
       style="overflow:visible"
       inkscape:isstock="true">
      <path
         inkscape:connector-curvature="0"
         id="path23866-0-0"
         style="fill:#969696;fill-opacity:1;fill-rule:evenodd;stroke:#969696;stroke-width:0.625;stroke-linejoin:round;stroke-opacity:1"
         d="M 8.7185878,4.0337352 -2.2072895,0.01601326 8.7185884,-4.0017078 c -1.7454984,2.3720609 -1.7354408,5.6174519 -6e-7,8.035443 z"
         transform="matrix(-0.3,0,0,-0.3,0.69,0)" />
    </marker>
    <marker
       inkscape:stockid="Arrow1Sstart"
       orient="auto"
       refY="0"
       refX="0"
       id="Arrow1Sstart-6"
       style="overflow:visible"
       inkscape:isstock="true">
      <path
         inkscape:connector-curvature="0"
         id="path23845-1"
         d="M 0,0 5,-5 -12.5,0 5,5 Z"
         style="fill:#969696;fill-opacity:1;fill-rule:evenodd;stroke:#969696;stroke-width:1.00000003pt;stroke-opacity:1"
         transform="matrix(0.2,0,0,0.2,1.2,0)" />
    </marker>
    <marker
       inkscape:stockid="Arrow2Sstart"
       orient="auto"
       refY="0"
       refX="0"
       id="Arrow2Sstart-0"
       style="overflow:visible"
       inkscape:isstock="true"
       inkscape:collect="always">
      <path
         inkscape:connector-curvature="0"
         id="path23863-6"
         style="fill:#5aabd7;fill-opacity:1;fill-rule:evenodd;stroke:#5aabd7;stroke-width:0.625;stroke-linejoin:round;stroke-opacity:1"
         d="M 8.7185878,4.0337352 -2.2072895,0.01601326 8.7185884,-4.0017078 c -1.7454984,2.3720609 -1.7354408,5.6174519 -6e-7,8.035443 z"
         transform="matrix(0.3,0,0,0.3,-0.69,0)" />
    </marker>
    <marker
       inkscape:stockid="Arrow2Send"
       orient="auto"
       refY="0"
       refX="0"
       id="Arrow2Send-5-1-2"
       style="overflow:visible"
       inkscape:isstock="true">
      <path
         inkscape:connector-curvature="0"
         id="path23866-0-1-1"
         style="fill:#4bae71;fill-opacity:1;fill-rule:evenodd;stroke:#4bae71;stroke-width:0.625;stroke-linejoin:round;stroke-opacity:1"
         d="M 8.7185878,4.0337352 -2.2072895,0.01601326 8.7185884,-4.0017078 c -1.7454984,2.3720609 -1.7354408,5.6174519 -6e-7,8.035443 z"
         transform="matrix(-0.3,0,0,-0.3,0.69,0)" />
    </marker>
    <marker
       inkscape:isstock="true"
       style="overflow:visible"
       id="marker26060-7"
       refX="0"
       refY="0"
       orient="auto"
       inkscape:stockid="Arrow2Sstart">
      <path
         inkscape:connector-curvature="0"
         transform="matrix(0.3,0,0,0.3,-0.69,0)"
         d="M 8.7185878,4.0337352 -2.2072895,0.01601326 8.7185884,-4.0017078 c -1.7454984,2.3720609 -1.7354408,5.6174519 -6e-7,8.035443 z"
         style="fill:#5aabd7;fill-opacity:1;fill-rule:evenodd;stroke:#5aabd7;stroke-width:0.625;stroke-linejoin:round;stroke-opacity:1"
         id="path26058-2" />
    </marker>
    <marker
       inkscape:stockid="Arrow2Send"
       orient="auto"
       refY="0"
       refX="0"
       id="Arrow2Send-7"
       style="overflow:visible"
       inkscape:isstock="true">
      <path
         inkscape:connector-curvature="0"
         id="path23866-8"
         style="fill:#4bae71;fill-opacity:1;fill-rule:evenodd;stroke:#4bae71;stroke-width:0.625;stroke-linejoin:round;stroke-opacity:1"
         d="M 8.7185878,4.0337352 -2.2072895,0.01601326 8.7185884,-4.0017078 c -1.7454984,2.3720609 -1.7354408,5.6174519 -6e-7,8.035443 z"
         transform="matrix(-0.3,0,0,-0.3,0.69,0)" />
    </marker>
    <marker
       inkscape:stockid="Arrow2Mend"
       orient="auto"
       refY="0"
       refX="0"
       id="marker26949-0"
       style="overflow:visible"
       inkscape:isstock="true">
      <path
         inkscape:connector-curvature="0"
         id="path26947-6"
         style="fill:#ff0404;fill-opacity:1;fill-rule:evenodd;stroke:#ff0404;stroke-width:0.625;stroke-linejoin:round;stroke-opacity:1"
         d="M 8.7185878,4.0337352 -2.2072895,0.01601326 8.7185884,-4.0017078 c -1.7454984,2.3720609 -1.7354408,5.6174519 -6e-7,8.035443 z"
         transform="scale(-0.6)" />
    </marker>
  </defs>
  <sodipodi:namedview
     id="base"
     pagecolor="#ffffff"
     bordercolor="#666666"
     borderopacity="1.0"
     inkscape:pageopacity="0.0"
     inkscape:pageshadow="2"
     inkscape:zoom="1.4"
     inkscape:cx="170.44714"
     inkscape:cy="65.907966"
     inkscape:document-units="mm"
     inkscape:current-layer="g26485"
     showgrid="false"
     inkscape:window-width="1920"
     inkscape:window-height="1001"
     inkscape:window-x="2091"
     inkscape:window-y="-9"
     inkscape:window-maximized="1"
     fit-margin-top="0"
     fit-margin-left="0"
     fit-margin-right="0"
     fit-margin-bottom="0" />
  <metadata
     id="metadata23235">
    <rdf:RDF>
      <cc:Work
         rdf:about="">
        <dc:format>image/svg+xml</dc:format>
        <dc:type
           rdf:resource="http://purl.org/dc/dcmitype/StillImage" />
        <dc:title></dc:title>
      </cc:Work>
    </rdf:RDF>
  </metadata>
  <g
     inkscape:label="Layer 1"
     inkscape:groupmode="layer"
     id="layer1"
     transform="translate(-103.60515,-71.769468)">
    <ellipse
       style="fill:none;fill-opacity:1;stroke:#969696;stroke-width:4.50141716;stroke-linecap:butt;stroke-linejoin:round;stroke-miterlimit:4;stroke-dasharray:none;stroke-dashoffset:0;stroke-opacity:1"
       id="path24780"
       transform="scale(0.26458333)"
       cy="0"
       cx="0"
       rx="2.0203052"
       ry="0.75761443" />
    <g
       id="g26485"
       transform="rotate(135,131.86586,97.557529)">
      <path
         inkscape:connector-curvature="0"
         id="path23794-8"
         d="m 133.61458,74.45708 v 48.75893"
         style="fill:none;stroke:#535353;stroke-width:0.92604166;stroke-linecap:butt;stroke-linejoin:miter;stroke-miterlimit:4;stroke-dasharray:none;stroke-opacity:1" />
      <path
         inkscape:connector-curvature="0"
         id="path23796-8"
         d="m 157.99404,98.269581 h -49.1369"
         style="fill:none;stroke:#535353;stroke-width:0.92604166;stroke-linecap:butt;stroke-linejoin:miter;stroke-miterlimit:4;stroke-dasharray:none;stroke-opacity:1" />
      <circle
         r="2.5287125"
         cy="74.457077"
         cx="133.61458"
         id="path23802-6"
         style="fill:#ffffff;fill-opacity:1;stroke:#535353;stroke-width:0.79374999;stroke-linecap:butt;stroke-linejoin:round;stroke-miterlimit:4;stroke-dasharray:none;stroke-dashoffset:0;stroke-opacity:1" />
      <circle
         transform="matrix(0,1,1,0,0,0)"
         r="2.5287125"
         cy="108.85713"
         cx="98.269592"
         id="path23802-2-0"
         style="fill:#ffffff;fill-opacity:1;stroke:#535353;stroke-width:0.92604166;stroke-linecap:butt;stroke-linejoin:round;stroke-miterlimit:4;stroke-dasharray:none;stroke-dashoffset:0;stroke-opacity:1" />
      <circle
         r="2.5287125"
         cy="123.21601"
         cx="133.61458"
         id="path23802-4-8"
         style="fill:#ffffff;fill-opacity:1;stroke:#535353;stroke-width:0.92604166;stroke-linecap:butt;stroke-linejoin:round;stroke-miterlimit:4;stroke-dasharray:none;stroke-dashoffset:0;stroke-opacity:1" />
      <circle
         transform="matrix(0,1,1,0,0,0)"
         r="2.5287125"
         cy="157.99403"
         cx="98.269585"
         id="path23802-5-3"
         style="fill:#ffffff;fill-opacity:1;stroke:#535353;stroke-width:0.92604166;stroke-linecap:butt;stroke-linejoin:round;stroke-miterlimit:4;stroke-dasharray:none;stroke-dashoffset:0;stroke-opacity:1" />
      <path
         d="m 130.13972,82.055349 a 8.481883,8.481883 0 0 1 -5.12908,-9.272304 8.481883,8.481883 0 0 1 7.91939,-7.040333 8.481883,8.481883 0 0 1 8.60778,6.179749 8.481883,8.481883 0 0 1 -4.13832,9.754866"
         sodipodi:open="true"
         sodipodi:end="1.0758995"
         sodipodi:start="1.9616454"
         sodipodi:ry="8.481883"
         sodipodi:rx="8.481883"
         sodipodi:cy="74.21312"
         sodipodi:cx="133.37109"
         sodipodi:type="arc"
         id="path24541-38"
         style="fill:none;fill-opacity:1;stroke:#4bae71;stroke-width:0.80000001;stroke-linecap:butt;stroke-linejoin:round;stroke-miterlimit:4;stroke-dasharray:none;stroke-dashoffset:0;stroke-opacity:1;marker-end:url(#Arrow2Send-7)" />
      <path
         sodipodi:open="true"
         transform="rotate(90)"
         d="m 95.215396,-150.33004 a 8.481883,8.481883 0 0 1 -5.129082,-9.27231 8.481883,8.481883 0 0 1 7.919394,-7.04033 8.481883,8.481883 0 0 1 8.607772,6.17975 8.481883,8.481883 0 0 1 -4.13832,9.75487"
         sodipodi:end="1.0758995"
         sodipodi:start="1.9616454"
         sodipodi:ry="8.481883"
         sodipodi:rx="8.481883"
         sodipodi:cy="-158.17227"
         sodipodi:cx="98.44677"
         sodipodi:type="arc"
         id="path24541-3-1"
         style="fill:none;fill-opacity:1;stroke:#5aabd7;stroke-width:0.80000001;stroke-linecap:butt;stroke-linejoin:round;stroke-miterlimit:4;stroke-dasharray:none;stroke-dashoffset:0;stroke-opacity:1;marker-start:url(#marker26060-7)" />
      <path
         transform="scale(-1)"
         d="m -136.84595,-115.37378 a 8.481883,8.481883 0 0 1 -5.12908,-9.27231 8.481883,8.481883 0 0 1 7.91939,-7.04033 8.481883,8.481883 0 0 1 8.60778,6.17975 8.481883,8.481883 0 0 1 -4.13833,9.75487"
         sodipodi:end="1.0758995"
         sodipodi:start="1.9616454"
         sodipodi:ry="8.481883"
         sodipodi:rx="8.481883"
         sodipodi:cy="-123.21601"
         sodipodi:cx="-133.61458"
         sodipodi:type="arc"
         id="path24541-3-4-6"
         style="fill:none;fill-opacity:1;stroke:#4bae71;stroke-width:0.80000001;stroke-linecap:butt;stroke-linejoin:round;stroke-miterlimit:4;stroke-dasharray:none;stroke-dashoffset:0;stroke-opacity:1;marker-end:url(#Arrow2Send-5-1-2)"
         sodipodi:open="true" />
      <path
         transform="rotate(-90)"
         d="m -101.50096,116.69937 a 8.481883,8.481883 0 0 1 -5.12908,-9.2723 8.481883,8.481883 0 0 1 7.919394,-7.04034 8.481883,8.481883 0 0 1 8.607776,6.17975 8.481883,8.481883 0 0 1 -4.138322,9.75487"
         sodipodi:end="1.0758995"
         sodipodi:start="1.9616454"
         sodipodi:ry="8.481883"
         sodipodi:rx="8.481883"
         sodipodi:cy="108.85714"
         sodipodi:cx="-98.269585"
         sodipodi:type="arc"
         id="path24541-3-6-9"
         style="fill:none;fill-opacity:1;stroke:#5aabd7;stroke-width:0.80000001;stroke-linecap:butt;stroke-linejoin:round;stroke-miterlimit:4;stroke-dasharray:none;stroke-dashoffset:0;stroke-opacity:1;marker-start:url(#Arrow2Sstart-0)"
         sodipodi:open="true" />
    </g>
    <path
       style="fill:#ffffff;fill-opacity:1;stroke:#535353;stroke-width:0.92604166;stroke-linecap:butt;stroke-linejoin:round;stroke-miterlimit:4;stroke-dasharray:none;stroke-opacity:1"
       d="m 126.66665,104.26966 v -9.496172 l 3.44109,-3.441095 3.47451,3.441095 v 9.488082 z"
       id="path23798-0"
       inkscape:connector-curvature="0"
       sodipodi:nodetypes="cccccc" />
    <text
       xml:space="preserve"
       style="font-style:normal;font-weight:normal;font-size:4.23333311px;line-height:1.25;font-family:sans-serif;letter-spacing:0px;word-spacing:0px;fill:#000000;fill-opacity:1;stroke:none;stroke-width:0.26458332"
       x="50.270832"
       y="148.64435"
       id="text26489"><tspan
         sodipodi:role="line"
         id="tspan26487"
         x="50.270832"
         y="152.38986"
         style="stroke-width:0.26458332" /></text>
    <flowRoot
       xml:space="preserve"
       id="flowRoot29407"
       style="font-style:normal;font-weight:normal;font-size:16px;line-height:1.25;font-family:sans-serif;letter-spacing:0px;word-spacing:0px;fill:#000000;fill-opacity:1;stroke:none"
       transform="scale(0.26458333)"><flowRegion
         id="flowRegion29409"><rect
           id="rect29411"
           width="54.548252"
           height="31.314722"
           x="676.80219"
           y="463.90024" /></flowRegion><flowPara
         id="flowPara29413" /></flowRoot>  </g>
</svg>
